# xmcd CD database file
#
# Track frame offsets:
#	150
#	30438
#	54851
#	82902
#	117447
#	139297
#	161321
#	183068
#	212059
#
# Disc length: 3107 seconds
#
# Revision: 0
# Processed by: cddbd v1.5.2PL0 Copyright (c) Steve Scherf et al.
# Submitted via: CDex 1.51
#
DISCID=680c2109
DTITLE=Peter Herbolzheimer All Star Big Band - Jazz Gala 77 - CD 1
DYEAR=1977
DGENRE=Jazz
TTITLE0=Filibuster
TTITLE1=Like Someone In Love
TTITLE2=Butterfly
TTITLE3=Manteca
TTITLE4=Nica's Dream
TTITLE5=The Healer
TTITLE6=Don't Speak now
TTITLE7=Tee Pee Time
TTITLE8=Mumbles
EXTD=YEAR: 1977
EXTT0=
EXTT1=
EXTT2=
EXTT3=
EXTT4=
EXTT5=
EXTT6=
EXTT7=
EXTT8=
PLAYORDER=
